<svg xmlns="http://www.w3.org/2000/svg" xmlns:xlink="http://www.w3.org/1999/xlink" width="89.894" height="77.083" viewBox="0 0 89.894 77.083">
  <defs>
    <clipPath id="clip-path">
      <rect id="Rectangle_166" data-name="Rectangle 166" width="89.894" height="77.084" fill="#fff"/>
    </clipPath>
  </defs>
  <g id="Group_130" data-name="Group 130" clip-path="url(#clip-path)">
    <path id="Path_1" data-name="Path 1" d="M81.762,0H8.132A8.155,8.155,0,0,0,0,8.132V68.951a8.156,8.156,0,0,0,8.132,8.133h73.63a8.156,8.156,0,0,0,8.132-8.133V8.132A8.155,8.155,0,0,0,81.762,0m2.61,54.232a4.865,4.865,0,0,1-4.85,4.85H10.372a4.865,4.865,0,0,1-4.85-4.85V9.584a4.864,4.864,0,0,1,4.85-4.85h69.15a4.864,4.864,0,0,1,4.85,4.85Z" fill="#fff"/>
    <path id="Path_2" data-name="Path 2" d="M7.543,53.67h72V7.729h-72Zm7.509-17.78a2.1,2.1,0,1,1-4.2,0V21.975a2.1,2.1,0,1,1,4.2,0ZM21.9,41.411a2.1,2.1,0,1,1-4.2,0V36.332a2.1,2.1,0,1,1,4.2,0Zm6.847-6.183a2.1,2.1,0,0,1-4.2,0V24.183a2.1,2.1,0,0,1,4.2,0Zm6.846-8.394a2.1,2.1,0,0,1-4.2,0v-5.08a2.1,2.1,0,0,1,4.2,0Zm6.847,14.577a2.1,2.1,0,1,1-4.2,0V27.5a2.1,2.1,0,0,1,4.2,0Zm6.846,5.964a2.1,2.1,0,1,1-4.2,0V33.461a2.1,2.1,0,1,1,4.2,0ZM56.134,38.1a2.1,2.1,0,0,1-4.2,0V29.927a2.1,2.1,0,1,1,4.2,0Zm6.847-5.3a2.1,2.1,0,0,1-4.2,0v-5.08a2.1,2.1,0,0,1,4.2,0Zm6.846,8.835a2.1,2.1,0,1,1-4.2,0V30.588a2.1,2.1,0,0,1,4.2,0Zm6.847-5.964a2.1,2.1,0,0,1-4.2,0V15.791a2.1,2.1,0,1,1,4.2,0Z" transform="translate(1.402 1.437)" fill="#fff"/>
  </g>
</svg>
